<svg xmlns="http://www.w3.org/2000/svg" width="128" height="128" viewBox="0 0 128 128">
  <g fill="#F9F9F9" fill-opacity=".8" fill-rule="evenodd" transform="translate(16 16)">
    <path d="M48,0 C74.509668,0 96,21.490332 96,48 C96,74.509668 74.509668,96 48,96 C21.490332,96 0,74.509668 0,48 C0,21.490332 21.490332,0 48,0 Z M48,16 C30.326888,16 16,30.326888 16,48 C16,65.673112 30.326888,80 48,80 C65.673112,80 80,65.673112 80,48 C80,30.326888 65.673112,16 48,16 Z"/>
    <path d="M19,48 C19,33.8938815 29.4311649,22.224092 43.0006664,20.2834601 L43,20 C47.418278,20 51,23.581722 51,28 L51,68 C51,72.418278 47.418278,76 43,76 L43.0006664,75.7165399 C29.4311649,73.775908 19,62.1061185 19,48 Z"/>
  </g>
</svg>
